<svg width="41" height="40" viewBox="0 0 41 40" fill="none" xmlns="http://www.w3.org/2000/svg">
<path d="M11.334 0.75H27.334C27.4251 0.75 27.5133 0.777281 27.5879 0.827148L27.6572 0.883789L38.4502 11.6768C38.5359 11.7625 38.584 11.8788 38.584 12V36C38.584 37.7949 37.1289 39.25 35.334 39.25H11.334C9.53906 39.25 8.08398 37.7949 8.08398 36V4C8.08398 2.20507 9.53906 0.75 11.334 0.75Z" fill="white" stroke="#D6D3D1" stroke-width="1.5"/>
<path d="M27.334 0.5V8C27.334 10.2091 29.1248 12 31.334 12H38.834" stroke="#D6D3D1" stroke-width="1.5"/>
<rect x="1.33398" y="18" width="36" height="16" rx="2" fill="#155DFC"/>
<path d="M7.73952 30H5.1614V22.7273H7.76083C8.49237 22.7273 9.1221 22.8729 9.65004 23.1641C10.178 23.4529 10.584 23.8684 10.8681 24.4105C11.1545 24.9527 11.2978 25.6013 11.2978 26.3565C11.2978 27.1141 11.1545 27.7652 10.8681 28.3097C10.584 28.8542 10.1756 29.272 9.64293 29.5632C9.11263 29.8544 8.47816 30 7.73952 30ZM6.69904 28.6825H7.6756C8.13015 28.6825 8.51249 28.602 8.82262 28.4411C9.13512 28.2777 9.3695 28.0256 9.52575 27.6847C9.68436 27.3414 9.76367 26.8987 9.76367 26.3565C9.76367 25.8191 9.68436 25.38 9.52575 25.0391C9.3695 24.6982 9.1363 24.4472 8.82617 24.2862C8.51604 24.1252 8.1337 24.0447 7.67915 24.0447H6.69904V28.6825ZM19.12 26.3636C19.12 27.1567 18.9697 27.8314 18.669 28.3878C18.3707 28.9441 17.9635 29.3691 17.4474 29.6626C16.9337 29.9538 16.3561 30.0994 15.7145 30.0994C15.0682 30.0994 14.4882 29.9527 13.9744 29.6591C13.4607 29.3655 13.0547 28.9406 12.7564 28.3842C12.4581 27.8279 12.3089 27.1544 12.3089 26.3636C12.3089 25.5705 12.4581 24.8958 12.7564 24.3395C13.0547 23.7831 13.4607 23.3594 13.9744 23.0682C14.4882 22.7746 15.0682 22.6278 15.7145 22.6278C16.3561 22.6278 16.9337 22.7746 17.4474 23.0682C17.9635 23.3594 18.3707 23.7831 18.669 24.3395C18.9697 24.8958 19.12 25.5705 19.12 26.3636ZM17.5611 26.3636C17.5611 25.8499 17.4841 25.4167 17.3303 25.0639C17.1787 24.7112 16.9645 24.4437 16.6875 24.2614C16.4105 24.0791 16.0862 23.9879 15.7145 23.9879C15.3428 23.9879 15.0185 24.0791 14.7415 24.2614C14.4645 24.4437 14.2491 24.7112 14.0952 25.0639C13.9437 25.4167 13.8679 25.8499 13.8679 26.3636C13.8679 26.8774 13.9437 27.3106 14.0952 27.6634C14.2491 28.0161 14.4645 28.2836 14.7415 28.4659C15.0185 28.6482 15.3428 28.7393 15.7145 28.7393C16.0862 28.7393 16.4105 28.6482 16.6875 28.4659C16.9645 28.2836 17.1787 28.0161 17.3303 27.6634C17.4841 27.3106 17.5611 26.8774 17.5611 26.3636ZM26.676 25.2734H25.1206C25.0922 25.0722 25.0342 24.8935 24.9466 24.7372C24.859 24.5786 24.7465 24.4437 24.6092 24.3324C24.4719 24.2211 24.3133 24.1359 24.1333 24.0767C23.9558 24.0175 23.7628 23.9879 23.5545 23.9879C23.1781 23.9879 22.8502 24.0814 22.5708 24.2685C22.2915 24.4531 22.0749 24.723 21.921 25.0781C21.7671 25.4309 21.6902 25.8594 21.6902 26.3636C21.6902 26.8821 21.7671 27.3177 21.921 27.6705C22.0772 28.0232 22.295 28.2895 22.5744 28.4695C22.8538 28.6494 23.1769 28.7393 23.5439 28.7393C23.7498 28.7393 23.9404 28.7121 24.1156 28.6577C24.2931 28.6032 24.4506 28.5239 24.5879 28.4197C24.7252 28.3132 24.8388 28.1842 24.9288 28.0327C25.0211 27.8812 25.085 27.7083 25.1206 27.5142L26.676 27.5213C26.6357 27.8551 26.5351 28.1771 26.3741 28.4872C26.2155 28.795 26.0012 29.0708 25.7314 29.3146C25.4638 29.5561 25.1442 29.7479 24.7725 29.8899C24.4032 30.0296 23.9854 30.0994 23.519 30.0994C22.8703 30.0994 22.2903 29.9527 21.7789 29.6591C21.2699 29.3655 20.8675 28.9406 20.5716 28.3842C20.278 27.8279 20.1312 27.1544 20.1312 26.3636C20.1312 25.5705 20.2804 24.8958 20.5787 24.3395C20.877 23.7831 21.2818 23.3594 21.7931 23.0682C22.3045 22.7746 22.8798 22.6278 23.519 22.6278C23.9404 22.6278 24.331 22.687 24.6909 22.8054C25.0531 22.9238 25.3739 23.0966 25.6532 23.3239C25.9326 23.5488 26.1599 23.8246 26.335 24.1513C26.5126 24.478 26.6262 24.852 26.676 25.2734ZM29.0641 22.7273L30.5307 25.206H30.5875L32.0613 22.7273H33.7978L31.5783 26.3636L33.8475 30H32.079L30.5875 27.5178H30.5307L29.0392 30H27.2779L29.5542 26.3636L27.3205 22.7273H29.0641Z" fill="white"/>
</svg>
