<svg width="20" height="17" viewBox="0 0 20 17" fill="none" xmlns="http://www.w3.org/2000/svg">
<path d="M5.34961 7.61151C5.30075 8.23729 5.37007 8.8688 5.55566 9.47186C5.79554 10.251 6.22235 10.9598 6.79883 11.5363C7.30323 12.0407 7.90874 12.4306 8.57422 12.6808L8.86328 12.7795C9.46616 12.965 10.0971 13.0324 10.7227 12.9836L11.6426 13.9035C11.3342 13.9485 11.0238 13.9797 10.7119 13.9924L10.3369 14.0002H10.3359C6.62475 14.0002 3.43642 11.7546 2.05957 8.54413L1.93262 8.23065H1.93164C1.87398 8.08059 1.87319 7.91397 1.93066 7.76385L1.93164 7.76483C2.24899 6.9439 2.68561 6.17651 3.22363 5.48456L5.34961 7.61151ZM10.332 2.00018H10.334C12.1533 2.00024 13.9298 2.55152 15.4297 3.58124C16.8358 4.54669 17.9376 5.8901 18.6084 7.45331L18.7363 7.76971C18.7939 7.91993 18.7941 8.08635 18.7363 8.23651C18.1315 9.80062 17.1025 11.1655 15.7656 12.1779L15.2539 12.5646L14.0771 11.3879L14.4707 10.8098C15.0842 9.90761 15.385 8.83095 15.3301 7.7453L15.3145 7.52753C15.2051 6.36907 14.6948 5.28493 13.8721 4.4621C13.1006 3.69064 12.0992 3.19428 11.0225 3.0451L10.8057 3.01971C9.64712 2.91046 8.48667 3.20906 7.52441 3.86346L6.94531 4.25604L5.86816 3.17889L6.06445 3.0744C7.29342 2.41131 8.65947 2.04527 10.0527 2.00409L10.332 2.00018ZM9.6416 6.66815C9.92458 6.52024 10.2478 6.4666 10.5635 6.51483C10.8792 6.56313 11.1716 6.71091 11.3975 6.93671C11.5952 7.13438 11.7331 7.38289 11.7969 7.6535L11.8193 7.77069C11.8676 8.08623 11.8138 8.40862 11.666 8.69159L11.5684 8.87909L9.45508 6.76581L9.6416 6.66815Z" fill="#A6A09B" stroke="#A6A09B" stroke-width="2"/>
</svg>
