<svg width="41" height="40" viewBox="0 0 41 40" fill="none" xmlns="http://www.w3.org/2000/svg">
<path d="M11.334 0.75H27.334C27.4251 0.75 27.5133 0.777281 27.5879 0.827148L27.6572 0.883789L38.4502 11.6768C38.5359 11.7625 38.584 11.8788 38.584 12V36C38.584 37.7949 37.1289 39.25 35.334 39.25H11.334C9.53906 39.25 8.08398 37.7949 8.08398 36V4C8.08398 2.20507 9.53906 0.75 11.334 0.75Z" fill="white" stroke="#D6D3D1" stroke-width="1.5"/>
<path d="M27.334 0.5V8C27.334 10.2091 29.1248 12 31.334 12H38.834" stroke="#D6D3D1" stroke-width="1.5"/>
<rect x="1.33398" y="18" width="26" height="16" rx="2" fill="#AA4344"/>
<path d="M5.16628 30V22.7273H8.0356C8.58721 22.7273 9.05714 22.8326 9.4454 23.0433C9.83366 23.2517 10.1296 23.5417 10.3332 23.9134C10.5392 24.2827 10.6421 24.7088 10.6421 25.1918C10.6421 25.6747 10.538 26.1009 10.3296 26.4702C10.1213 26.8395 9.81945 27.1271 9.42409 27.3331C9.0311 27.5391 8.55525 27.642 7.99654 27.642H6.1677V26.4098H7.74796C8.04389 26.4098 8.28773 26.3589 8.47949 26.2571C8.67362 26.1529 8.81803 26.0097 8.91273 25.8274C9.0098 25.6428 9.05833 25.4309 9.05833 25.1918C9.05833 24.9503 9.0098 24.7396 8.91273 24.5597C8.81803 24.3774 8.67362 24.2365 8.47949 24.1371C8.28536 24.0353 8.03915 23.9844 7.74086 23.9844H6.70392V30H5.16628ZM14.219 30H11.6409V22.7273H14.2403C14.9719 22.7273 15.6016 22.8729 16.1295 23.1641C16.6575 23.4529 17.0635 23.8684 17.3476 24.4105C17.634 24.9527 17.7773 25.6013 17.7773 26.3565C17.7773 27.1141 17.634 27.7652 17.3476 28.3097C17.0635 28.8542 16.6551 29.272 16.1224 29.5632C15.5921 29.8544 14.9577 30 14.219 30ZM13.1785 28.6825H14.1551C14.6096 28.6825 14.992 28.602 15.3021 28.4411C15.6146 28.2777 15.849 28.0256 16.0052 27.6847C16.1639 27.3414 16.2432 26.8987 16.2432 26.3565C16.2432 25.8191 16.1639 25.38 16.0052 25.0391C15.849 24.6982 15.6158 24.4472 15.3057 24.2862C14.9955 24.1252 14.6132 24.0447 14.1586 24.0447H13.1785V28.6825ZM18.9163 30V22.7273H23.7316V23.995H20.4539V25.728H23.412V26.9957H20.4539V30H18.9163Z" fill="white"/>
</svg>
