<svg width="41" height="40" viewBox="0 0 41 40" fill="none" xmlns="http://www.w3.org/2000/svg">
<path d="M11.334 0.75H27.334C27.4251 0.75 27.5133 0.777281 27.5879 0.827148L27.6572 0.883789L38.4502 11.6768C38.5359 11.7625 38.584 11.8788 38.584 12V36C38.584 37.7949 37.1289 39.25 35.334 39.25H11.334C9.53906 39.25 8.08398 37.7949 8.08398 36V4C8.08398 2.20507 9.53906 0.75 11.334 0.75Z" fill="white" stroke="#D6D3D1" stroke-width="1.5"/>
<path d="M27.334 0.5V8C27.334 10.2091 29.1248 12 31.334 12H38.834" stroke="#D6D3D1" stroke-width="1.5"/>
<rect x="1.33398" y="18" width="33" height="16" rx="2" fill="#F54A00"/>
<path d="M5.07741 30V22.7273H7.94673C8.49834 22.7273 8.96828 22.8326 9.35653 23.0433C9.74479 23.2517 10.0407 23.5417 10.2443 23.9134C10.4503 24.2827 10.5533 24.7088 10.5533 25.1918C10.5533 25.6747 10.4491 26.1009 10.2408 26.4702C10.0324 26.8395 9.73059 27.1271 9.33523 27.3331C8.94223 27.5391 8.46638 27.642 7.90767 27.642H6.07884V26.4098H7.65909C7.95502 26.4098 8.19886 26.3589 8.39062 26.2571C8.58475 26.1529 8.72917 26.0097 8.82386 25.8274C8.92093 25.6428 8.96946 25.4309 8.96946 25.1918C8.96946 24.9503 8.92093 24.7396 8.82386 24.5597C8.72917 24.3774 8.58475 24.2365 8.39062 24.1371C8.1965 24.0353 7.95028 23.9844 7.65199 23.9844H6.61506V30H5.07741ZM11.552 30V22.7273H14.4213C14.973 22.7273 15.4429 22.8326 15.8311 23.0433C16.2194 23.2517 16.5153 23.5417 16.7189 23.9134C16.9249 24.2827 17.0279 24.7088 17.0279 25.1918C17.0279 25.6747 16.9237 26.1009 16.7154 26.4702C16.507 26.8395 16.2052 27.1271 15.8098 27.3331C15.4168 27.5391 14.941 27.642 14.3823 27.642H12.5534V26.4098H14.1337C14.4296 26.4098 14.6735 26.3589 14.8652 26.2571C15.0594 26.1529 15.2038 26.0097 15.2985 25.8274C15.3955 25.6428 15.4441 25.4309 15.4441 25.1918C15.4441 24.9503 15.3955 24.7396 15.2985 24.5597C15.2038 24.3774 15.0594 24.2365 14.8652 24.1371C14.6711 24.0353 14.4249 23.9844 14.1266 23.9844H13.0897V30H11.552ZM17.7496 23.995V22.7273H23.7227V23.995H21.4961V30H19.9762V23.995H17.7496ZM26.1481 22.7273L27.6147 25.206H27.6715L29.1452 22.7273H30.8817L28.6623 26.3636L30.9315 30H29.163L27.6715 27.5178H27.6147L26.1232 30H24.3619L26.6381 26.3636L24.4045 22.7273H26.1481Z" fill="white"/>
</svg>
