<svg width="105" height="36" viewBox="0 0 105 36" fill="none" xmlns="http://www.w3.org/2000/svg">
<path d="M12.6649 21.5709C12.0382 21.4148 11.3593 21.2325 10.6543 21.0764C9.13989 20.738 7.65155 20.3215 6.21544 19.8269C4.75323 19.3323 3.60434 18.6555 2.7949 17.7965C2.01156 16.9375 1.82879 15.7921 2.29879 14.3604C3.00379 12.6424 4.49212 10.8202 6.78989 8.84189C9.11378 6.88959 11.6466 5.14553 14.4666 3.66177C17.2604 2.15199 19.741 1.21488 21.9343 0.85045C23.501 0.668235 24.5454 0.928541 25.0677 1.6574C25.5899 2.38626 25.4593 3.37543 24.7021 4.59888C23.9188 5.7182 22.6654 7.38417 20.9421 9.59679L18.6966 12.5383C18.6704 12.5643 18.6704 12.6424 18.6704 12.7465L18.7488 13.0589C18.7749 13.189 18.801 13.2932 18.801 13.3712C18.8271 13.4754 18.801 13.5535 18.7749 13.5795C18.7488 13.6316 18.5921 13.8138 18.2788 14.1261L17.1821 15.2455C16.7904 15.662 16.4249 16.0264 16.1116 16.3388L15.5371 16.8854C15.3021 16.9895 15.0149 16.9895 14.7277 16.8594C14.4404 16.7292 14.2316 16.521 14.101 16.2346C13.9704 15.9483 14.0227 15.6359 14.2316 15.2715C14.5971 14.6988 15.1716 13.8919 15.9288 12.9287L18.3571 9.779C20.1066 7.56639 21.4121 5.84836 22.2999 4.59888L22.4304 4.3646C22.9527 3.63574 23.2138 3.14116 23.1616 2.90688C23.1093 2.6726 22.5349 2.6726 21.4382 2.90688C19.6366 3.27131 17.6521 4.05223 15.4327 5.24965C13.2393 6.42103 11.1766 7.77463 9.27044 9.28442C7.36433 10.7942 5.95433 12.2259 5.04045 13.6055C4.10045 14.9852 4.02212 16.0264 4.80545 16.7813C5.35378 17.2498 6.13711 17.6403 7.15544 17.9787C8.14766 18.2911 9.21822 18.6034 10.3671 18.8898C12.3254 19.3063 13.9704 19.8529 15.276 20.5037C16.5816 21.1284 16.9471 22.0916 16.3466 23.341C15.511 24.7207 13.631 25.9962 10.7588 27.1676C7.88655 28.3389 4.72712 29.1459 1.25434 29.5884C0.73212 29.5624 0.392676 29.4062 0.183787 29.0678C0.00100979 28.7034 -0.0512124 28.365 0.053232 28.0005C0.131565 27.6361 0.366565 27.4279 0.758231 27.3758C6.00655 26.8552 10.1582 25.6317 13.1871 23.7055C14.101 23.0807 14.4927 22.6642 14.3882 22.3779C14.2838 22.1176 13.7093 21.8312 12.6649 21.5709ZM22.5392 14.5426C22.7481 14.3084 23.0092 14.2563 23.3747 14.3344C23.7142 14.4125 23.9753 14.5947 24.1842 14.855C24.3931 15.1413 24.3931 15.4277 24.1842 15.7661C23.6097 16.4949 23.0875 17.2498 22.5914 18.0308C22.0953 18.7856 21.7819 19.4364 21.7036 19.957C21.5992 20.4776 21.8603 20.7119 22.4869 20.6599C23.4269 20.5297 24.4975 20.1392 25.6464 19.4885C26.7953 18.8377 27.8397 18.1609 28.8058 17.4581C29.7719 16.7552 30.4247 16.2346 30.7903 15.9483C30.8947 15.8702 30.9469 15.8181 30.9731 15.7921C31.1819 15.662 31.3908 15.6099 31.5736 15.688C31.7825 15.7661 31.8869 15.8962 31.9392 16.1045C31.9914 16.3127 31.8869 16.521 31.6519 16.7813C31.2342 17.1717 30.4769 17.8225 29.3281 18.7336C28.1792 19.6447 26.9258 20.4776 25.5419 21.2586C24.1581 22.0395 22.9308 22.43 21.8342 22.456C20.7375 22.482 20.0586 21.8052 19.7714 20.4256C19.7453 19.4364 20.0847 18.3431 20.7897 17.1717C21.4947 16.0004 22.0692 15.1153 22.5392 14.5426ZM24.0797 12.9548C24.2103 12.5122 24.3931 12.0176 24.6803 11.497C24.9414 11.0024 25.2547 10.612 25.5681 10.3777C25.7247 10.2736 25.9858 10.1955 26.3253 10.1955C26.6647 10.1695 26.9781 10.2215 27.2392 10.3256C27.5264 10.4298 27.6308 10.612 27.5525 10.8983C27.4219 11.2107 27.1347 11.6272 26.6908 12.0957C26.2208 12.5903 25.7508 13.0068 25.2547 13.3452C24.7586 13.7096 24.3931 13.8398 24.1581 13.7877C24.0014 13.7096 23.9753 13.4233 24.0797 12.9548ZM25.175 35.7056C24.8094 36.0701 24.3917 36.0961 23.9739 35.7837C23.5561 35.4714 23.2689 35.0288 23.1122 34.4041C22.9294 33.8054 23.0339 33.2067 23.3994 32.66C24.6789 31.0982 25.9322 29.7186 27.1856 28.5212C28.3344 27.4018 29.2483 26.3866 29.9011 25.5016C30.0578 25.2413 30.2406 24.981 30.3972 24.7467C31.3372 23.3671 32.1989 22.0395 32.9561 20.7119C33.6872 19.3844 34.2878 17.9006 34.7317 16.2607C33.8961 16.8594 32.8517 17.7704 31.5983 18.9418C30.7106 19.7748 29.875 20.5297 29.0656 21.2065C28.2561 21.8833 27.6033 22.2998 27.1333 22.456C26.4544 22.6122 26.0628 22.4039 25.9583 21.8573C25.88 21.3106 26.0628 20.6338 26.5328 19.8269C26.9506 19.098 27.6033 18.239 28.465 17.2238C29.3006 16.2086 30.1622 15.3236 31.0761 14.5166C31.9639 13.7357 32.695 13.3192 33.2433 13.2671C33.4522 13.2671 33.635 13.3452 33.7917 13.4754C33.9483 13.6316 34.0789 13.7877 34.2094 13.9439C34.3661 14.1522 34.5228 14.3084 34.6533 14.3864C34.6794 14.3864 34.6794 14.3604 34.7056 14.3604L35.1755 14.048C35.3844 13.8919 35.6194 13.8138 35.8806 13.7877C36.1156 13.7617 36.3244 13.8658 36.4811 14.1001C36.7944 14.6988 36.7422 15.688 36.2983 17.0416C35.8544 18.3952 35.3322 19.6967 34.7056 20.9462C34.0789 22.2217 33.635 23.0287 33.4 23.3931C34.105 22.8204 35.0972 21.9614 36.4289 20.764C38.2828 19.0199 40.5283 17.0936 43.1394 14.9852C43.4267 14.7769 43.6617 14.7769 43.8706 14.9852C44.0794 15.1934 44.1839 15.4797 44.1839 15.8181C44.21 16.1826 44.0533 16.4949 43.74 16.7552C39.0139 20.4776 35.045 23.9397 31.8333 27.1676L30.3711 28.5732C29.8489 29.0938 29.17 30.057 28.2822 31.4106C27.29 32.9724 26.2456 34.4041 25.175 35.7056ZM43.6853 14.4125C43.8942 14.1522 44.1553 14.048 44.4687 14.1261C44.782 14.2042 45.0431 14.3864 45.252 14.6468C45.4348 14.9331 45.4609 15.1934 45.3042 15.4537C45.1214 15.714 44.9387 16.0004 44.7559 16.2346C44.547 16.547 44.3642 16.8073 44.2076 17.0156C44.077 17.2498 43.9987 17.406 43.9987 17.5101C44.2598 17.2498 44.6776 16.8594 45.3042 16.3127C45.9048 15.7661 46.5314 15.2194 47.1581 14.7248C47.7848 14.2042 48.2548 13.8658 48.542 13.7357C48.777 13.6576 49.0381 13.7096 49.2992 13.8658C49.5864 14.022 49.7953 14.2303 49.9781 14.5166C50.1609 14.7769 50.2392 15.0632 50.187 15.3236C50.1348 15.5318 50.0303 15.7921 49.8737 16.1305L49.2992 17.2238C49.012 17.7704 48.777 18.239 48.5942 18.6555C48.3853 19.072 48.3592 19.3323 48.4637 19.3844C48.8553 19.4885 49.4037 19.3583 50.1348 18.9939C50.8659 18.6295 51.5709 18.213 52.2498 17.7444C52.9548 17.2759 53.4248 16.9375 53.712 16.7292C53.712 16.7292 53.7381 16.7032 53.7642 16.7032C54.0514 16.4949 54.3125 16.4689 54.5214 16.573C54.7303 16.7032 54.8348 16.8854 54.8609 17.1457C54.8609 17.406 54.7303 17.6403 54.4431 17.8746C53.242 18.8117 51.9364 19.6447 50.4742 20.4256C49.012 21.1805 47.837 21.4148 46.9753 21.0503C46.4531 20.7119 46.3226 20.1653 46.5314 19.3844C46.7403 18.6034 47.0014 17.8746 47.3409 17.1978C47.4714 16.9114 47.5759 16.6772 47.6542 16.4689C47.6803 16.2867 47.4976 16.3908 47.0537 16.7552C46.6359 17.1197 46.1137 17.6403 45.487 18.265L43.6592 20.1132C42.9803 20.816 42.5103 21.3106 42.2492 21.5709C42.0142 21.7271 41.7531 21.7792 41.4398 21.6751C41.1526 21.5709 40.8914 21.3887 40.7087 21.1284C40.5259 20.8421 40.4998 20.5297 40.6303 20.1653C41.4398 18.3692 42.4581 16.4689 43.6853 14.4125ZM57.9045 22.3779C57.1734 22.1436 56.7818 21.7271 56.7034 21.0764C56.6512 20.4256 56.7557 19.7228 57.0429 18.9418C57.304 18.1869 57.6173 17.5101 57.9568 16.9635C57.8523 17.0676 57.6957 17.2238 57.5129 17.4581C57.0429 17.9787 56.4162 18.6555 55.659 19.4364C54.8758 20.2173 54.0663 20.9202 53.2308 21.5449C52.4997 22.0655 51.9252 22.2998 51.5336 22.2738C51.1419 22.2477 50.8547 22.0916 50.6719 21.8052C50.3324 21.4148 50.3586 20.816 50.7241 20.0091C51.1158 19.2542 51.8208 18.3431 52.7869 17.3019C53.7791 16.2346 54.8236 15.3496 55.894 14.6468C56.9646 13.9439 57.8523 13.7096 58.5312 13.996C58.6357 14.048 58.7401 14.048 58.8446 13.996L59.1579 13.7877C59.2884 13.6576 59.4451 13.5535 59.654 13.4754C59.8368 13.4493 60.0718 13.5014 60.3329 13.6576C60.5679 13.8138 60.7768 14.022 60.9334 14.2823C61.0901 14.5166 61.1162 14.7509 61.0118 14.9852C60.9073 15.1674 60.7768 15.4277 60.5679 15.7661C60.2284 16.3388 59.889 16.9895 59.5234 17.6924C59.1579 18.4212 58.9229 19.046 58.7923 19.6186C58.6879 20.1653 58.8184 20.4776 59.2362 20.5557C59.7845 20.5818 60.5679 20.3475 61.534 19.8269C62.5262 19.3063 63.5184 18.6815 64.5368 17.9266C65.5551 17.1978 66.3645 16.4949 66.9912 15.8442C67.2523 15.5839 67.5134 15.5058 67.7746 15.5578C68.0096 15.6099 68.1662 15.7661 68.2184 16.0524C68.2446 16.3127 68.0879 16.6511 67.7223 17.0416C66.4168 18.3952 64.7457 19.6447 62.7612 20.8421C60.7768 22.0395 59.1579 22.5341 57.9045 22.3779ZM61.6473 28.3389C62.039 26.0482 63.1096 23.1068 64.8329 19.4364C66.5562 15.7921 68.0184 12.9287 69.2196 10.8723L69.2979 10.664C69.324 10.638 69.3501 10.586 69.3762 10.5339C69.0629 10.5599 68.5407 10.664 67.8618 10.7942C67.1568 10.9504 66.4518 11.1066 65.7729 11.2888C65.094 11.471 64.5979 11.6012 64.3107 11.7313C63.919 11.8875 63.6057 11.8875 63.3445 11.7053C63.0834 11.5491 62.9529 11.3148 62.9268 11.0285C62.9007 10.7421 63.0573 10.4558 63.3707 10.2215C63.6579 10.0653 64.3107 9.85709 65.2507 9.62282C66.2168 9.38854 67.1829 9.18029 68.1751 8.97205C69.1412 8.78983 69.8201 8.65968 70.1595 8.60762C70.4468 8.58159 70.6557 8.45143 70.7862 8.19112C71.3345 7.30608 71.9351 6.36897 72.5879 5.35377C73.2668 4.33857 73.9718 3.45353 74.6768 2.6726C74.9118 2.43833 75.199 2.36023 75.4862 2.46436C75.7995 2.56848 76.0084 2.72466 76.1912 2.98497C76.3479 3.24528 76.374 3.50559 76.2173 3.76589C74.964 5.06743 73.8673 6.49913 72.9012 8.11303C72.8751 8.16509 72.8229 8.21716 72.7968 8.29525C72.8229 8.26922 72.849 8.26922 72.8751 8.26922C73.2407 8.24319 73.8151 8.19112 74.5984 8.087C75.3818 8.00891 76.4523 7.93082 77.784 7.93082C79.1157 7.90479 79.9251 7.95685 80.1862 8.03494C80.5518 8.19112 80.7345 8.39937 80.7607 8.68571C80.8129 8.97205 80.7084 9.23236 80.4995 9.4406C80.2907 9.67488 80.0034 9.75297 79.6118 9.70091C78.3845 9.59679 77.1573 9.59679 75.9301 9.64885C74.7029 9.72694 73.8673 9.779 73.3973 9.83106C72.9273 9.90916 72.4573 9.98725 72.0134 10.0914C71.7523 10.1174 71.5695 10.2476 71.4651 10.4818C71.3607 10.638 71.2562 10.8202 71.1779 11.0024C69.6373 13.7617 68.2534 16.4429 67.0262 19.046C65.7729 21.623 64.7023 24.4604 63.7623 27.532C63.7362 27.6621 63.7362 27.8183 63.7362 28.0005C63.7623 28.2348 63.7623 28.4691 63.7101 28.7034C63.684 28.9376 63.5273 29.1199 63.2923 29.276C62.9007 29.4843 62.509 29.4843 62.1434 29.276C61.7779 29.0678 61.6212 28.7554 61.6473 28.3389ZM78.7762 13.2411C79.0895 12.9548 79.4551 12.9027 79.8468 13.0849C80.2384 13.2671 80.5518 13.5274 80.7868 13.8658C81.0218 14.2042 81.0479 14.5166 80.9173 14.7769C80.839 14.9071 80.7084 15.0632 80.5518 15.2715C79.9773 15.9483 79.429 16.7813 78.9329 17.7965C78.4107 18.8117 78.1757 19.6447 78.2279 20.2954C78.2801 20.6599 78.1234 20.8941 77.784 21.0243C77.4184 21.1544 77.0529 21.1544 76.6612 20.9983C76.2695 20.8421 76.0868 20.5557 76.0868 20.1132C76.1912 19.3844 76.374 18.7336 76.6612 18.1349C76.9223 17.5362 77.1834 17.0936 77.4184 16.7552C77.4968 16.6511 77.5229 16.573 77.549 16.547C77.314 16.8333 76.9223 17.3019 76.374 17.9006C75.8257 18.5253 75.1468 19.2282 74.3895 19.9831C73.6062 20.764 72.9534 21.3367 72.4573 21.7271C72.0395 22.0135 71.5957 22.1176 71.1257 21.9874C70.6295 21.8573 70.264 21.597 70.0029 21.2065C69.7157 20.816 69.6896 20.3735 69.8723 19.8789C70.264 19.0199 70.8384 18.0568 71.5434 16.9895C72.2484 15.9223 72.7968 15.2194 73.2145 14.829C73.554 14.5687 73.8934 14.5166 74.2068 14.6728C74.494 14.855 74.7029 15.0893 74.8073 15.4277C74.9118 15.7661 74.8334 16.0524 74.5462 16.2867C74.1806 16.4689 73.4234 17.432 72.2745 19.2021C71.9351 19.7748 71.9351 19.957 72.2223 19.7488C72.5095 19.5666 73.0057 19.1501 73.6845 18.4993C74.3373 17.8485 75.0684 17.1457 75.8257 16.3388C76.5829 15.5318 77.2879 14.829 77.8884 14.1782C78.254 13.7877 78.5412 13.4754 78.7762 13.2411ZM82.1223 23.1068C81.8873 23.4452 81.574 23.6274 81.1823 23.6274C80.8168 23.6274 80.4773 23.4712 80.2423 23.2109C79.9812 22.9245 79.929 22.5341 80.0857 22.0395C80.5295 20.816 81.0518 19.5666 81.6262 18.3171C82.2007 17.0416 83.0101 15.5058 84.0545 13.7096C84.3157 13.2671 84.5768 13.0068 84.8379 12.9287C85.0729 12.8506 85.2818 12.9027 85.4907 13.0328C85.7257 13.2151 85.8562 13.4233 85.9084 13.7357C85.9607 14.022 85.804 14.3344 85.4384 14.6728C85.2557 14.855 85.0207 15.2455 84.6812 15.8181C84.3679 16.4168 84.0545 16.9895 83.7673 17.5622C83.4801 18.1349 83.3234 18.4993 83.2973 18.6555C83.5062 18.3952 83.7151 18.1088 83.9501 17.7965C84.4462 17.1457 84.9684 16.4949 85.4907 15.8181C86.039 15.1674 86.509 14.6468 86.9529 14.2563C87.3445 13.9439 87.7362 13.8658 88.1279 13.996C88.5195 14.1261 88.7545 14.4125 88.8329 14.855C88.859 15.1153 88.859 15.4016 88.8329 15.714C88.8068 15.9483 88.7807 16.1565 88.8068 16.3648C88.8068 16.547 88.859 16.7032 88.9634 16.7813C89.2245 16.9635 89.6945 16.9375 90.3212 16.7292C90.974 16.547 91.6007 16.2607 92.2012 15.8962C92.4362 15.7661 92.619 15.7921 92.7495 15.9743C92.9062 16.1826 92.9584 16.4168 92.9062 16.7032C92.854 16.9895 92.6451 17.2498 92.2795 17.4581C91.3134 17.9527 90.3473 18.2911 89.4334 18.4472C88.4934 18.6295 87.8668 18.6034 87.5273 18.3431C87.3184 18.1349 87.214 17.9006 87.1879 17.6143C87.1618 17.3019 87.1618 17.0416 87.214 16.8073V16.4429C87.1879 16.3908 87.1357 16.3908 87.0573 16.4429C86.3523 17.1197 85.4907 18.1349 84.4984 19.5405C83.5062 20.9202 82.6968 22.1176 82.1223 23.1068ZM89.869 22.3779C89.0334 22.1176 88.6679 21.597 88.7723 20.816C88.8507 20.0091 89.164 19.2802 89.6601 18.5514C90.809 16.8594 92.2451 15.3756 93.9162 14.1522C95.4045 13.137 96.5012 12.7986 97.2062 13.0589C97.9112 13.3452 98.094 13.8919 97.7807 14.6988C97.3629 15.4797 96.7362 16.1045 95.8745 16.5991C95.0129 17.1197 94.1773 17.5362 93.3157 17.8746C92.924 18.0308 92.5584 18.213 92.219 18.3431C92.0101 18.4733 91.7751 18.6555 91.5662 18.8898C91.3312 19.1501 91.1223 19.4104 90.9657 19.6967C90.7829 19.957 90.7045 20.1913 90.6784 20.3996C90.6523 20.5818 90.7568 20.6599 90.9918 20.6599C92.3234 20.4776 94.2295 19.8008 96.7623 18.6295C99.269 17.4581 101.306 16.3388 102.846 15.2455C103.212 15.0632 103.525 15.0632 103.786 15.2194C104.047 15.3496 104.178 15.6099 104.178 15.9223C104.152 16.2607 103.891 16.5991 103.395 16.9635C102.481 17.5882 101.123 18.3431 99.3473 19.2802C97.5979 20.1913 95.8223 20.9722 94.0207 21.649C92.2451 22.2998 90.8612 22.5341 89.869 22.3779Z" fill="#1C1919"/>
</svg>
