<svg width="119" height="104" viewBox="0 0 119 104" fill="none" xmlns="http://www.w3.org/2000/svg">
<path d="M79.66 35.17C71.2899 35.17 62.77 34.83 54.7999 32.61C46.9799 30.44 39.7999 26.23 33.3999 21.36C29.2099 18.19 25.3999 15.66 19.9599 16.04C14.638 16.328 9.54874 18.3153 5.43995 21.71C-1.48005 27.77 -0.440053 39 2.32995 46.86C6.48995 58.73 19.1499 67 29.9099 72.35C42.34 78.56 55.9899 82.17 69.6899 84.24C81.6899 86.07 97.1099 87.39 107.51 79.56C117.06 72.35 119.68 55.91 117.34 44.81C116.772 41.5309 115.026 38.5721 112.43 36.49C105.72 31.58 95.7099 34.86 88.1699 35.02C85.3699 35.08 82.52 35.15 79.66 35.17Z" fill="#F2F2F2"/>
<path d="M94.26 82.04H27.73V38.2L61.06 15.28L94.26 38.2V82.04Z" fill="#D2D2D2"/>
<path d="M77.5476 8.64311L29.521 21.7006C28.0075 22.1121 27.1141 23.6727 27.5256 25.1863L38.2219 64.5281C38.6334 66.0417 40.194 66.935 41.7075 66.5235L89.7341 53.466C91.2477 53.0545 92.1411 51.4939 91.7296 49.9804L81.0332 10.6385C80.6217 9.12498 79.0612 8.2316 77.5476 8.64311Z" fill="white" stroke="#BABABA" stroke-linecap="round" stroke-linejoin="round"/>
<path d="M94.26 82.31H27.73V38.48L59.36 58.54L94.26 38.48V82.31Z" fill="white" stroke="#BABABA" stroke-linecap="round" stroke-linejoin="round"/>
<path d="M27.73 82.31L59.11 52.31C59.7017 51.7345 60.4946 51.4126 61.32 51.4126C62.1454 51.4126 62.9382 51.7345 63.53 52.31L94.26 82.31H27.73Z" fill="white" stroke="#BABABA" stroke-linecap="round" stroke-linejoin="round"/>
<path d="M51.4199 42.91C51.297 40.5774 51.9767 38.2732 53.3459 36.3808C54.7152 34.4884 56.6914 33.1222 58.9454 32.5096C61.1994 31.897 63.5952 32.075 65.734 33.0139C67.8727 33.9529 69.6253 35.5961 70.6999 37.67" stroke="#BABABA" stroke-linecap="round" stroke-linejoin="round"/>
<path d="M68.44 25.88C69.2243 25.88 69.86 25.2442 69.86 24.46C69.86 23.6757 69.2243 23.04 68.44 23.04C67.6558 23.04 67.02 23.6757 67.02 24.46C67.02 25.2442 67.6558 25.88 68.44 25.88Z" fill="#BABABA"/>
<path d="M46.68 31.8C47.4643 31.8 48.1 31.1643 48.1 30.38C48.1 29.5958 47.4643 28.96 46.68 28.96C45.8958 28.96 45.26 29.5958 45.26 30.38C45.26 31.1643 45.8958 31.8 46.68 31.8Z" fill="#BABABA"/>
<path d="M93.03 23.77C93.5713 23.77 94.01 23.3312 94.01 22.79C94.01 22.2488 93.5713 21.81 93.03 21.81C92.4888 21.81 92.05 22.2488 92.05 22.79C92.05 23.3312 92.4888 23.77 93.03 23.77Z" fill="#CFCFCF"/>
<path d="M22.7 73.91C23.2412 73.91 23.68 73.4713 23.68 72.93C23.68 72.3888 23.2412 71.95 22.7 71.95C22.1587 71.95 21.72 72.3888 21.72 72.93C21.72 73.4713 22.1587 73.91 22.7 73.91Z" fill="#CFCFCF"/>
<path d="M109.43 22.31V26.62" stroke="#BABABA" stroke-linecap="round" stroke-linejoin="round"/>
<path d="M107.28 24.47H111.58" stroke="#BABABA" stroke-linecap="round" stroke-linejoin="round"/>
<path d="M103.61 89.63V93.93" stroke="#BABABA" stroke-linecap="round" stroke-linejoin="round"/>
<path d="M101.46 91.78H105.76" stroke="#BABABA" stroke-linecap="round" stroke-linejoin="round"/>
<path d="M21.1299 0.609985V4.90998" stroke="#BABABA" stroke-linecap="round" stroke-linejoin="round"/>
<path d="M18.98 2.76001H23.28" stroke="#BABABA" stroke-linecap="round" stroke-linejoin="round"/>
<path d="M59.5801 103.7C79.8545 103.7 96.2901 102.675 96.2901 101.41C96.2901 100.145 79.8545 99.12 59.5801 99.12C39.3057 99.12 22.8701 100.145 22.8701 101.41C22.8701 102.675 39.3057 103.7 59.5801 103.7Z" fill="#F2F2F2"/>
</svg>
